<?xml version="1.0" standalone="no"?>
<!DOCTYPE svg PUBLIC "-//W3C//DTD SVG 20010904//EN"
 "http://www.w3.org/TR/2001/REC-SVG-20010904/DTD/svg10.dtd">
<svg version="1.0" xmlns="http://www.w3.org/2000/svg"
 width="700.000000pt" height="700.000000pt" viewBox="0 0 700.000000 700.000000"
 preserveAspectRatio="xMidYMid meet">
<metadata>
Created by potrace 1.14, written by Peter Selinger 2001-2017
</metadata>
<g transform="translate(0.000000,700.000000) scale(0.100000,-0.100000)"
fill="#000000" stroke="none">
<path d="M2681 6017 c-6 -6 -11 -7 -11 -1 0 5 -5 2 -10 -6 -7 -11 -10 -12 -10
-2 0 10 -4 9 -16 -2 -8 -9 -20 -14 -25 -11 -5 4 -9 1 -9 -5 0 -6 -5 -8 -11 -5
-5 4 -20 -1 -31 -12 -12 -10 -18 -12 -14 -5 4 6 2 12 -3 12 -6 0 -11 -5 -11
-11 0 -6 -9 -9 -20 -6 -11 3 -18 1 -14 -4 3 -5 -2 -9 -12 -9 -9 0 -23 -8 -31
-17 -8 -10 -12 -12 -8 -5 3 6 1 12 -4 12 -6 0 -11 -5 -11 -11 0 -6 -7 -8 -16
-5 -10 4 -13 2 -8 -6 5 -7 2 -9 -9 -5 -9 3 -18 -1 -21 -10 -4 -9 -9 -13 -13
-10 -3 4 -18 -2 -33 -13 -16 -11 -36 -20 -45 -20 -9 0 -13 -5 -10 -10 4 -6 3
-9 -2 -8 -11 3 -57 -13 -63 -23 -3 -4 -12 -9 -20 -11 -8 -2 -23 -12 -33 -23
-10 -11 -16 -14 -12 -5 4 10 2 9 -8 -2 -8 -10 -19 -18 -26 -18 -6 0 -11 -5
-11 -11 0 -5 -4 -7 -10 -4 -5 3 -10 -1 -10 -10 0 -9 -5 -13 -10 -10 -6 3 -17
-1 -26 -9 -9 -9 -21 -13 -27 -9 -7 3 -9 3 -5 -2 5 -5 -1 -15 -12 -22 -11 -8
-18 -19 -15 -24 3 -5 0 -6 -8 -4 -7 3 -30 -10 -50 -29 -20 -19 -37 -32 -37
-28 0 4 -5 -1 -11 -11 -6 -9 -13 -16 -17 -14 -4 2 -17 -7 -29 -20 -12 -13 -19
-23 -16 -23 4 0 -9 -12 -28 -26 -19 -14 -33 -30 -31 -36 2 -6 -4 -8 -13 -5 -9
4 -15 1 -15 -9 0 -8 -7 -17 -15 -20 -8 -4 -13 -10 -10 -14 3 -5 -4 -11 -15
-15 -11 -3 -20 -10 -20 -14 0 -15 -37 -51 -46 -43 -4 4 -2 -2 6 -12 10 -13 10
-17 3 -12 -8 4 -13 2 -13 -5 0 -7 -3 -10 -6 -6 -8 8 -33 -16 -27 -25 2 -4 -10
-21 -27 -38 -17 -16 -27 -30 -23 -30 4 0 0 -5 -10 -11 -9 -6 -15 -14 -12 -19
3 -5 -4 -14 -15 -20 -11 -6 -18 -15 -15 -21 4 -5 1 -9 -5 -9 -6 0 -9 -4 -6 -9
3 -5 -1 -11 -9 -15 -8 -3 -15 -12 -15 -21 0 -8 -5 -15 -11 -15 -5 0 -7 -4 -4
-10 3 -5 1 -10 -4 -10 -6 0 -11 -7 -11 -15 0 -8 -5 -15 -11 -15 -6 0 -8 -9 -3
-22 6 -20 5 -21 -10 -9 -14 12 -16 12 -10 -4 6 -14 4 -16 -7 -10 -8 4 -11 5
-7 0 4 -4 -2 -25 -13 -46 -11 -22 -16 -39 -12 -39 5 0 0 -5 -10 -11 -9 -6 -15
-14 -12 -20 4 -5 1 -9 -4 -9 -6 0 -11 -6 -11 -13 0 -18 -23 -67 -32 -67 -4 0
-5 -7 -2 -15 4 -8 1 -15 -7 -15 -7 0 -9 -3 -6 -7 4 -3 1 -13 -6 -21 -10 -13
-9 -14 3 -7 9 5 8 0 -4 -13 -11 -12 -16 -22 -11 -22 4 0 3 -6 -3 -12 -10 -13
-12 -18 -12 -39 0 -5 -4 -8 -9 -5 -4 3 -7 -6 -5 -19 1 -14 -2 -25 -7 -25 -6 0
-8 -4 -5 -9 3 -5 0 -21 -8 -36 -8 -15 -13 -36 -11 -46 2 -11 0 -19 -4 -19 -11
0 -13 -83 -13 -565 0 -425 2 -525 12 -525 3 0 7 -9 8 -20 1 -11 3 -29 4 -40 1
-11 6 -20 11 -20 4 0 6 -4 2 -9 -3 -5 0 -13 6 -16 5 -4 8 -13 5 -21 -3 -8 -2
-14 2 -14 4 0 8 -10 9 -22 1 -11 6 -24 10 -27 4 -3 10 -15 11 -26 2 -11 8 -22
13 -23 5 -2 7 -8 4 -13 -3 -4 4 -26 15 -49 11 -22 18 -40 14 -40 -3 0 2 -7 11
-16 9 -9 14 -23 11 -30 -3 -8 3 -18 14 -24 11 -6 17 -16 14 -24 -3 -7 2 -16
10 -19 9 -4 16 -13 16 -22 0 -19 20 -55 40 -73 13 -12 13 -13 0 -6 -11 6 -10
2 2 -13 10 -11 18 -23 18 -27 0 -4 9 -16 20 -28 11 -12 20 -28 20 -35 0 -7 5
-13 10 -13 6 0 10 -7 10 -16 0 -8 5 -12 10 -9 5 3 10 -3 10 -15 0 -12 4 -18
10 -15 5 3 10 1 10 -5 0 -11 33 -62 58 -88 6 -7 12 -18 12 -23 0 -5 7 -9 16
-9 8 0 12 -4 9 -10 -3 -6 -1 -10 5 -10 6 0 8 -4 5 -10 -3 -6 1 -10 10 -10 9 0
14 -4 10 -9 -3 -5 5 -17 17 -25 12 -9 19 -16 16 -16 -4 0 13 -21 39 -47 25
-26 52 -58 61 -71 8 -12 21 -21 28 -18 9 3 11 -1 7 -12 -3 -9 -2 -14 2 -10 5
5 14 -1 22 -12 8 -11 22 -20 31 -20 15 0 15 -2 2 -10 -13 -8 -12 -10 3 -10 9
0 17 -5 17 -10 0 -6 11 -16 25 -22 14 -6 25 -18 25 -25 0 -8 5 -11 10 -8 6 3
10 1 10 -4 0 -6 7 -11 16 -11 8 0 12 -5 9 -10 -3 -5 1 -10 9 -10 9 0 16 -4 16
-10 0 -5 6 -10 13 -10 7 0 18 -9 25 -20 7 -12 17 -18 22 -15 6 3 10 1 10 -5 0
-6 4 -9 8 -6 5 3 15 -4 22 -15 8 -10 20 -19 28 -19 7 0 10 -5 7 -10 -4 -6 -3
-9 2 -8 15 4 53 -13 53 -24 0 -6 3 -8 6 -5 4 4 15 -3 25 -15 11 -12 19 -16 19
-8 0 8 6 6 18 -6 9 -10 24 -20 32 -22 8 -2 17 -7 20 -10 3 -4 12 -8 20 -10 8
-2 17 -8 18 -13 2 -5 12 -9 23 -9 10 0 19 -5 19 -11 0 -5 4 -8 9 -4 5 3 13 0
16 -6 4 -5 13 -8 21 -5 8 3 14 -1 14 -10 0 -8 4 -13 9 -9 5 3 13 0 16 -6 4 -5
13 -8 21 -5 8 3 14 1 14 -5 0 -5 6 -9 13 -8 21 4 47 -13 40 -25 -4 -6 -1 -6 9
2 13 10 17 10 21 -2 4 -9 14 -12 26 -9 12 3 21 1 21 -4 0 -5 8 -9 18 -10 30
-2 50 -9 64 -20 7 -7 26 -10 41 -9 15 2 27 -1 27 -7 0 -5 9 -7 20 -4 11 3 20
2 20 -3 0 -4 12 -7 28 -8 45 0 72 -13 72 -33 0 -11 5 -19 11 -19 5 0 7 -4 4
-10 -3 -5 -1 -10 5 -10 6 0 9 -4 5 -10 -6 -10 13 -50 30 -62 6 -4 6 -8 1 -8
-5 0 -3 -6 3 -14 6 -8 10 -20 9 -27 -2 -8 2 -13 8 -12 6 1 10 -9 8 -23 -1 -14
0 -23 3 -20 4 3 15 -13 25 -36 10 -22 16 -43 14 -46 -3 -2 7 -21 22 -40 15
-20 21 -33 15 -28 -9 5 -11 2 -7 -8 3 -9 10 -16 15 -16 5 0 9 -12 9 -26 0 -14
4 -23 10 -19 6 3 10 -2 10 -12 0 -11 6 -25 13 -32 10 -11 9 -13 -3 -7 -12 6
-12 5 1 -6 9 -7 14 -19 11 -27 -3 -9 0 -11 8 -6 10 6 12 4 7 -9 -4 -10 1 -24
12 -35 11 -11 17 -22 14 -24 -2 -3 2 -18 11 -35 8 -16 12 -32 9 -36 -4 -3 -2
-6 4 -6 11 0 26 -37 23 -58 -1 -11 3 -11 21 -2 14 8 19 9 15 1 -4 -6 -2 -11 4
-11 6 0 8 -5 5 -10 -3 -6 -1 -10 5 -10 7 0 9 -7 6 -16 -3 -8 1 -22 9 -30 8 -9
16 -13 16 -10 1 3 2 9 3 14 1 4 12 27 24 51 12 24 19 48 16 52 -3 5 0 9 5 9 6
0 11 7 11 15 0 8 6 15 13 15 9 0 9 2 -1 9 -11 7 -10 9 3 15 9 3 14 10 11 15
-4 5 1 16 9 24 11 12 12 17 2 20 -7 3 -5 6 5 6 11 1 15 6 12 15 -3 8 -1 17 5
21 6 3 11 14 11 24 0 10 7 24 15 31 8 7 12 16 9 21 -2 5 2 20 11 33 9 14 14
30 10 36 -3 5 1 10 10 10 9 0 14 4 10 9 -3 5 1 15 8 23 8 7 12 19 9 27 -3 9 0
11 8 6 8 -5 11 -4 7 3 -8 12 2 44 12 38 4 -3 8 4 9 15 4 43 6 49 14 49 5 0 6
5 3 10 -3 6 -1 10 6 10 7 0 9 10 7 24 -4 18 -1 23 10 18 10 -3 13 -1 8 6 -4 7
-2 12 6 12 9 0 9 3 -2 10 -13 8 -13 10 2 10 11 0 15 5 12 15 -4 8 -1 15 7 15
7 0 9 3 6 7 -4 3 -1 13 6 21 10 13 9 15 -3 8 -11 -6 -11 -4 1 6 9 7 15 21 13
31 -1 9 2 14 8 11 6 -4 14 -1 18 6 4 7 19 12 34 12 14 1 26 5 26 10 0 6 8 4
17 -3 11 -10 14 -10 9 -1 -5 9 2 12 28 12 19 0 37 4 40 8 3 5 19 9 36 10 17 0
38 6 46 12 7 7 21 10 29 6 9 -3 14 -2 11 3 -3 5 1 12 10 15 10 4 13 2 8 -7 -4
-6 3 -3 16 8 14 12 20 14 15 5 -8 -13 -7 -13 8 -1 9 7 17 11 17 7 0 -4 11 1
25 10 14 9 25 12 25 8 0 -5 7 0 15 10 10 13 15 15 15 6 0 -9 5 -8 16 6 8 10
13 14 10 7 -5 -8 0 -8 18 0 13 7 22 16 19 22 -4 5 -3 7 1 3 12 -10 67 13 59
25 -3 6 -1 7 6 3 6 -4 18 -2 26 4 8 7 15 9 15 5 0 -4 6 -2 13 4 8 6 16 10 18
8 2 -1 3 0 2 2 -5 8 32 30 50 31 9 0 17 5 17 11 0 5 5 7 10 4 6 -3 10 1 10 9
0 10 6 13 15 10 8 -4 15 -1 15 7 0 7 3 9 6 6 6 -6 22 5 81 53 7 6 15 10 19 10
4 0 15 9 25 21 9 11 20 20 23 20 20 -3 26 0 21 9 -3 6 1 10 9 10 9 0 16 5 16
10 0 6 5 10 10 10 11 0 16 5 97 79 23 21 45 36 49 32 4 -3 4 2 1 11 -3 10 -3
17 1 17 20 -3 31 3 37 21 4 11 11 18 16 15 5 -4 9 -2 9 3 0 4 25 34 55 65 30
31 52 57 49 57 -4 0 8 12 25 27 17 15 31 33 31 41 0 7 7 15 15 18 8 4 13 9 10
13 -2 4 5 14 16 21 10 8 19 18 19 23 0 5 12 24 26 43 15 19 22 34 18 34 -5 0
-4 4 1 8 16 11 68 95 68 109 0 7 4 10 9 7 7 -5 12 10 9 29 0 4 4 7 9 7 6 0 10
7 10 15 0 8 5 15 12 15 6 0 8 3 5 7 -4 3 0 15 10 25 9 10 13 21 10 24 -3 4 1
13 9 21 8 8 12 19 9 24 -4 5 -1 9 5 9 7 0 10 6 8 12 -3 7 1 19 9 26 7 8 11 18
8 23 -4 5 -1 9 4 9 6 0 11 9 11 20 0 11 9 36 20 55 11 20 15 33 8 29 -7 -4 -6
1 3 12 8 10 16 30 17 43 0 13 7 28 14 32 10 7 10 9 -2 9 -12 1 -11 3 3 11 14
8 15 14 6 31 -8 15 -8 19 0 14 6 -4 11 -1 12 6 0 7 3 22 6 33 7 27 11 987 4
1000 -3 5 -6 25 -8 44 -2 19 -8 38 -14 42 -8 4 -7 8 2 12 10 4 10 6 2 6 -8 1
-13 14 -13 31 0 17 -4 30 -9 30 -5 0 -8 12 -8 26 0 15 -7 30 -14 35 -8 5 -10
9 -5 9 5 0 2 8 -5 17 -9 11 -10 14 -2 9 9 -5 11 -2 7 8 -3 9 -9 16 -13 16 -4
0 -8 7 -9 15 -1 8 -3 22 -4 30 -1 8 -5 12 -10 9 -5 -4 -8 2 -6 12 2 12 -2 18
-11 16 -11 -2 -12 0 -2 11 9 12 8 16 -4 21 -9 3 -14 10 -10 15 3 5 1 12 -5 16
-5 3 -10 15 -10 26 0 10 -4 19 -8 19 -5 0 -14 16 -22 35 -7 19 -18 31 -24 28
-6 -3 -6 0 1 7 10 11 8 17 -8 31 -11 10 -21 21 -22 26 -2 15 -32 63 -39 63 -4
0 -4 7 -1 17 4 11 3 14 -5 9 -11 -6 -17 5 -13 27 0 4 -3 7 -8 7 -11 0 -56 71
-53 83 2 5 -2 6 -7 3 -5 -4 -15 7 -22 23 -7 16 -17 27 -21 25 -4 -3 -8 2 -8
10 0 8 -10 22 -22 30 -12 9 -18 16 -13 16 6 0 1 7 -9 15 -11 8 -16 15 -10 15
5 0 -3 10 -17 23 -15 12 -28 27 -30 32 -2 6 -7 9 -11 7 -8 -2 -12 15 -8 33 1
6 -1 7 -5 3 -7 -7 -37 21 -64 61 -8 11 -18 18 -23 15 -4 -3 -8 2 -8 11 0 9 -4
13 -10 10 -5 -3 -10 -1 -10 5 0 11 -24 40 -33 40 -12 0 -75 69 -69 76 4 4 2 4
-5 0 -6 -3 -23 5 -37 19 -14 14 -28 25 -32 25 -4 0 -17 12 -30 26 -14 14 -29
22 -36 18 -7 -4 -8 -3 -4 4 4 7 1 12 -9 12 -9 0 -13 5 -10 10 3 6 1 10 -5 10
-6 0 -18 7 -27 15 -8 8 -18 13 -23 10 -4 -3 -11 2 -14 11 -4 9 -9 14 -12 11
-6 -6 -19 3 -56 38 -12 11 -17 13 -13 5 5 -8 -3 -5 -17 8 -13 12 -34 22 -46
22 -12 0 -22 5 -22 10 0 9 -43 31 -60 31 -3 0 -9 7 -13 15 -5 8 -12 12 -18 9
-5 -4 -9 0 -9 7 0 9 -3 9 -10 -2 -5 -8 -10 -10 -10 -4 0 11 -36 28 -53 25 -4
-1 -10 5 -13 13 -3 8 -12 12 -20 9 -8 -3 -14 -1 -14 5 0 6 -8 9 -17 8 -10 -2
-24 3 -32 11 -7 8 -19 12 -27 9 -7 -3 -14 0 -16 5 -2 5 -14 11 -28 11 -14 1
-27 5 -30 10 -3 4 -20 8 -38 10 -18 1 -32 5 -32 9 0 13 -1156 9 -1169 -4z
m589 -1337 c9 5 20 4 29 -3 12 -9 13 -9 8 0 -6 9 5 12 37 11 31 0 43 -4 39
-12 -4 -6 -1 -6 9 1 8 7 18 10 22 6 11 -12 56 -11 56 1 0 6 4 5 9 -3 5 -7 14
-10 20 -7 6 4 11 2 11 -5 0 -8 4 -8 15 1 13 11 14 10 9 -3 -4 -12 -1 -15 15
-12 12 2 21 0 21 -5 0 -4 9 -6 20 -3 12 3 20 0 20 -6 0 -7 5 -9 10 -6 6 3 10
2 10 -4 0 -5 9 -8 20 -6 11 2 18 0 15 -6 -4 -5 6 -9 20 -9 15 0 24 -4 20 -10
-3 -5 3 -10 14 -10 10 0 21 -5 23 -10 2 -6 13 -12 25 -13 12 0 21 -6 20 -12
-1 -5 6 -9 15 -9 10 1 15 -2 12 -7 -3 -5 -1 -9 4 -9 4 0 24 -13 42 -30 18 -16
37 -30 41 -30 4 0 11 -9 14 -20 4 -11 10 -18 15 -15 5 3 11 -4 15 -15 4 -11
11 -18 16 -15 8 5 11 -1 8 -21 0 -3 9 -14 20 -23 11 -10 18 -21 14 -25 -3 -3
-1 -6 6 -6 7 0 11 -6 8 -14 -3 -8 1 -17 9 -20 9 -3 13 -10 9 -15 -3 -5 0 -13
6 -16 5 -4 8 -13 5 -21 -3 -8 0 -14 7 -14 7 0 13 -12 14 -26 0 -15 7 -30 15
-35 10 -7 10 -9 -2 -9 -13 0 -13 -2 -1 -9 8 -5 11 -16 8 -25 -3 -8 -2 -18 4
-22 6 -3 8 -11 6 -17 -2 -7 2 -25 10 -41 8 -15 10 -25 4 -22 -6 4 -11 2 -11
-3 0 -6 3 -11 8 -11 4 0 7 -14 8 -30 1 -17 -4 -30 -9 -30 -7 0 -7 -4 1 -12 8
-8 8 -15 1 -24 -6 -8 -6 -14 0 -18 5 -4 6 -18 2 -34 -4 -15 -7 -41 -5 -59 1
-18 -4 -37 -12 -44 -11 -9 -12 -15 -3 -25 9 -11 8 -14 0 -14 -7 0 -9 -5 -5
-11 3 -6 2 -14 -4 -18 -6 -4 -12 -21 -14 -38 -1 -17 -6 -29 -10 -27 -4 3 -8
-4 -8 -15 0 -12 -4 -21 -10 -21 -5 0 -7 -6 -4 -13 3 -8 -2 -20 -10 -27 -9 -7
-13 -16 -10 -21 3 -5 0 -9 -7 -9 -7 0 -9 -3 -6 -6 4 -4 -3 -15 -14 -25 -11 -9
-21 -27 -22 -38 -1 -12 -7 -21 -14 -21 -7 0 -13 -6 -13 -14 0 -8 -7 -17 -16
-20 -9 -4 -14 -13 -10 -22 3 -8 2 -12 -3 -9 -5 3 -12 1 -16 -5 -4 -6 -11 -8
-16 -5 -5 3 -6 -2 -2 -11 4 -11 2 -15 -4 -11 -5 4 -15 -5 -21 -18 -7 -14 -17
-24 -24 -23 -7 2 -12 -3 -11 -9 2 -7 -4 -13 -12 -13 -7 0 -19 -8 -24 -17 -6
-10 -11 -14 -11 -10 0 5 -13 -1 -29 -12 -15 -11 -32 -17 -36 -13 -5 4 -4 1 0
-7 6 -11 4 -13 -8 -8 -10 4 -16 2 -14 -5 1 -6 -11 -15 -28 -21 -16 -5 -33 -14
-36 -19 -3 -5 -14 -10 -25 -12 -10 -2 -43 -13 -71 -24 -29 -11 -50 -16 -47
-10 4 5 -4 4 -17 -3 -29 -16 -52 -17 -61 -4 -5 6 -8 4 -8 -5 0 -16 -54 -21
-77 -7 -6 4 -14 3 -17 -1 -6 -10 -52 -10 -61 0 -4 3 -19 3 -35 -2 -20 -6 -32
-4 -45 9 -10 9 -15 10 -11 3 5 -8 1 -11 -11 -8 -65 13 -83 20 -83 30 0 6 -5 4
-10 -4 -6 -10 -10 -11 -10 -2 0 7 -13 12 -31 12 -17 0 -28 4 -24 10 4 6 -5 10
-19 10 -14 0 -26 4 -26 9 0 6 -9 8 -20 6 -11 -2 -19 1 -17 7 1 6 -5 12 -15 13
-19 3 -75 42 -99 68 -9 9 -22 17 -28 17 -6 0 -14 7 -17 15 -4 8 -10 13 -14 10
-5 -3 -11 4 -15 15 -3 11 -13 20 -21 20 -8 0 -14 7 -14 16 0 8 -4 12 -10 9 -5
-3 -10 1 -10 9 0 9 -4 16 -10 16 -5 0 -10 7 -10 16 0 9 -5 12 -12 8 -8 -5 -9
-2 -5 9 4 11 1 17 -7 17 -7 0 -13 7 -14 15 -1 8 -3 22 -4 30 -1 8 -7 15 -14
15 -8 0 -11 6 -8 15 4 8 1 15 -6 15 -6 0 -9 4 -5 9 3 5 1 12 -5 16 -6 4 -8 11
-5 16 4 5 2 9 -3 9 -5 0 -8 13 -7 30 1 16 -2 27 -6 24 -4 -2 -10 0 -14 6 -3 5
0 10 7 10 9 0 10 3 2 8 -6 4 -10 15 -8 25 1 9 -2 17 -7 17 -5 0 -9 5 -9 11 0
5 4 7 10 4 6 -3 7 1 4 9 -3 9 -11 13 -16 10 -6 -4 -7 0 -1 12 13 26 11 43 -7
54 -11 7 -11 10 -2 10 9 0 11 7 7 19 -3 11 -1 22 5 26 8 5 8 11 -1 21 -9 11
-8 14 2 14 9 0 10 3 3 8 -12 8 -14 53 -1 45 4 -2 5 7 1 21 -4 18 -2 26 7 26 9
0 10 3 4 8 -13 9 -19 35 -6 28 5 -4 12 -2 16 4 3 5 2 10 -4 10 -6 0 -4 14 5
35 8 19 14 37 14 40 0 22 1 25 10 20 6 -3 7 1 4 10 -4 8 -1 21 5 29 6 7 8 16
4 19 -3 4 -1 7 6 7 7 0 9 5 6 10 -3 6 -1 10 6 10 6 0 9 8 6 19 -3 15 -1 18 11
14 10 -4 13 -2 8 6 -5 7 1 20 15 32 14 12 17 19 8 19 -10 1 -9 4 4 11 9 5 17
17 17 25 0 8 4 13 8 10 4 -2 14 4 21 16 9 15 10 18 0 13 -8 -6 -10 -4 -5 4 5
7 15 10 23 7 8 -3 11 -2 8 3 -3 5 -1 12 5 16 6 4 8 11 5 16 -3 5 2 6 11 2 11
-4 15 -2 11 4 -4 6 0 14 9 17 8 3 12 11 9 16 -4 6 -3 9 2 8 5 -2 19 7 33 20
13 12 30 22 37 22 8 0 11 5 8 10 -3 6 0 10 8 10 7 0 23 9 35 20 12 12 22 17
22 13 0 -4 4 -2 9 5 4 7 17 14 29 15 11 0 18 5 16 9 -3 5 3 11 13 14 10 3 26
10 36 15 10 5 22 7 26 4 5 -3 11 2 15 10 3 8 12 12 21 9 8 -4 15 -1 15 6 0 10
3 10 14 1 10 -8 16 -9 21 -1 3 5 15 10 26 10 11 0 18 4 15 8 -3 4 8 7 25 6 16
-1 32 2 35 7 3 5 12 5 23 0 10 -6 23 -6 31 -1z"/>
</g>
</svg>
